<?xml version="1.0" encoding="utf-8"?>
<?xml-stylesheet type="text/xsl" href="rss1.xsl"?>
<rss version="2.0" xmlns:atom="http://www.w3.org/2005/Atom" xmlns:content="http://purl.org/rss/1.0/modules/content/" xmlns:dc="http://purl.org/dc/elements/1.1/" xmlns:media="http://search.yahoo.com/mrss/">
<channel>
 <title>Getty</title>
 <link>http://www.gettyimg.com/</link>
 <atom:link href="http://www.gettyimg.com/" rel="self" type="application/rss+xml" />

 
                <item>
                <title><![CDATA[【HD Live Performances】HDTV - Sam Smith - Live @ Pinkpop 2024 HDTV H264 1080i MP2-ilya2129]]></title>
                <link><![CDATA[https://sharemania.us/threads/sam-smith-live-pinkpop-2024-hdtv-h264-1080i-mp2-ilya2129.247812/]]></link>
                <description><![CDATA[<article>
<blockquote class="messageText SelectQuoteContainer ugc baseHtml">
<div style="text-align: center"><img src="https://i123.fastpic.org/big/2024/0622/e9/9b01a3e0688d10ff569e7812b3096ee9.png?r=1" class="bbCodeImage LbImage" alt="[​IMG]" data-url="https://i123.fastpic.org/big/2024/0622/e9/9b01a3e0688d10ff569e7812b3096ee9.png?r=1" style=""><br>
<br>
<a href="https://fastpic.org/view/123/2024/0624/_e053aa2a0a0983bba0f8c70b4f13086b.png.html" target="_blank" class="externalLink" rel="nofollow"><img src="https://i123.fastpic.org/thumb/2024/0624/6b/_e053aa2a0a0983bba0f8c70b4f13086b.jpeg" class="bbCodeImage LbImage" alt="[​IMG]" data-url="https://i123.fastpic.org/thumb/2024/0624/6b/_e053aa2a0a0983bba0f8c70b4f13086b.jpeg"></a> <a href="https://fastpic.org/view/123/2024/0624/_cc7cc045d5d1a505bc54e2a3f9f74e36.png.html" target="_blank" class="externalLink" rel="nofollow"><img src="https://i123.fastpic.org/thumb/2024/0624/36/_cc7cc045d5d1a505bc54e2a3f9f74e36.jpeg" class="bbCodeImage LbImage" alt="[​IMG]" data-url="https://i123.fastpic.org/thumb/2024/0624/36/_cc7cc045d5d1a505bc54e2a3f9f74e36.jpeg"></a> <a href="https://fastpic.org/view/123/2024/0624/_9be0e50149531afce6fbfe3b2c497579.png.html" target="_blank" class="externalLink" rel="nofollow"><img src="https://i123.fastpic.org/thumb/2024/0624/79/_9be0e50149531afce6fbfe3b2c497579.jpeg" class="bbCodeImage LbImage" alt="[​IMG]" data-url="https://i123.fastpic.org/thumb/2024/0624/79/_9be0e50149531afce6fbfe3b2c497579.jpeg"></a> <a href="https://fastpic.org/view/123/2024/0624/_71b3fe18d77b51f1512ecffc27c88991.png.html" target="_blank" class="externalLink" rel="nofollow"><img src="https://i123.fastpic.org/thumb/2024/0624/91/_71b3fe18d77b51f1512ecffc27c88991.jpeg" class="bbCodeImage LbImage" alt="[​IMG]" data-url="https://i123.fastpic.org/thumb/2024/0624/91/_71b3fe18d77b51f1512ecffc27c88991.jpeg"></a> <a href="https://fastpic.org/view/123/2024/0624/_2cc1aab375c4a280a0bb04dbcea2a29a.png.html" target="_blank" class="externalLink" rel="nofollow"><img src="https://i123.fastpic.org/thumb/2024/0624/9a/_2cc1aab375c4a280a0bb04dbcea2a29a.jpeg" class="bbCodeImage LbImage" alt="[​IMG]" data-url="https://i123.fastpic.org/thumb/2024/0624/9a/_2cc1aab375c4a280a0bb04dbcea2a29a.jpeg"></a> <a href="https://fastpic.org/view/123/2024/0624/_21b760bedc0e854bafdb4ad1b88528a4.png.html" target="_blank" class="externalLink" rel="nofollow"><img src="https://i123.fastpic.org/thumb/2024/0624/a4/_21b760bedc0e854bafdb4ad1b88528a4.jpeg" class="bbCodeImage LbImage" alt="[​IMG]" data-url="https://i123.fastpic.org/thumb/2024/0624/a4/_21b760bedc0e854bafdb4ad1b88528a4.jpeg"></a> <a href="https://fastpic.org/view/123/2024/0624/_f4c70efb8df7139d5649d29f6cb5569e.png.html" target="_blank" class="externalLink" rel="nofollow"><img src="https://i123.fastpic.org/thumb/2024/0624/9e/_f4c70efb8df7139d5649d29f6cb5569e.jpeg" class="bbCodeImage LbImage" alt="[​IMG]" data-url="https://i123.fastpic.org/thumb/2024/0624/9e/_f4c70efb8df7139d5649d29f6cb5569e.jpeg"></a><br>
<br>
​</div><br>
<div class="bbCodeBlock bbCodeCode">
<div class="type">Code:</div>
<pre>General
ID                                       : 1 (0x1)
Complete name                            : C:\Recordings\Sam Smith - Live @ Pinkpop 2024 HDTV H264 1080i MP2-ilya2129.ts
Format                                   : MPEG-TS
File size                                : 2.93 GiB
Duration                                 : 1 h 23 min
Overall bit rate mode                    : Variable
Overall bit rate                         : 5 037 kb/s
Frame rate                               : 25.000 FPS

Video
ID                                       : 302 (0x12E)
Menu ID                                  : 1 (0x1)
Format                                   : AVC
Format/Info                              : Advanced Video Codec
Format profile                           : High@L4
Format settings                          : CABAC / 4 Ref Frames
Format settings, CABAC                   : Yes
Format settings, Reference frames        : 4 frames
Format settings, GOP                     : M=4, N=32
Codec ID                                 : 27
Duration                                 : 1 h 23 min
Bit rate                                 : 4 530 kb/s
Width                                    : 1 920 pixels
Height                                   : 1 080 pixels
Display aspect ratio                     : 16:9
Active Format Description                : Letterbox 16:9 image
Frame rate                               : 25.000 FPS
Standard                                 : Component
Color space                              : YUV
Chroma subsampling                       : 4:2:0
Bit depth                                : 8 bits
Scan type                                : MBAFF
Scan type, store method                  : Interleaved fields
Scan order                               : Top Field First
Bits/(Pixel*Frame)                       : 0.087
Stream size                              : 2.63 GiB (90%)
Color range                              : Limited
Color primaries                          : BT.709
Transfer characteristics                 : BT.709
Matrix coefficients                      : BT.709

Audio
ID                                       : 303 (0x12F)
Menu ID                                  : 1 (0x1)
Format                                   : MPEG Audio
Format version                           : Version 1
Format profile                           : Layer 2
Codec ID                                 : 3
Duration                                 : 1 h 23 min
Bit rate mode                            : Constant
Bit rate                                 : 256 kb/s
Channel(s)                               : 2 channels
Sampling rate                            : 48.0 kHz
Frame rate                               : 41.667 FPS (1152 SPF)
Compression mode                         : Lossy
Delay relative to video                  : -120 ms
Stream size                              : 152 MiB (5%)
Language                                 : Dutch

Text
ID                                       : 310 (0x136)-888
Menu ID                                  : 1 (0x1)
Format                                   : Teletext Subtitle
Language                                 : Dutch
Language, more info                      : For hearing impaired people

Other
ID                                       : 310 (0x136)-100
Menu ID                                  : 1 (0x1)
Format                                   : Teletext
Language                                 : Dutch

</pre>
</div><div style="text-align: center"><br>
<div class="bbCodeBlock bbCodeVfcHH HiddenContent">
<div class="attribution type">Hidden Content:</div>
<blockquote>You must reply before you can see the hidden data contained here.</blockquote>
</div></div>
<div class="messageTextEndMarker">&nbsp;</div>
</blockquote>
</article>]]></description>
                <author><![CDATA[ilya2129]]></author>
                </item>

                
                <item>
                <title><![CDATA[【HD Live Performances】HDTV - Green Day - Live @ Isle Of Wight 2024 HDTV H264 1080i DD5.1-ilya2129]]></title>
                <link><![CDATA[https://sharemania.us/threads/green-day-live-isle-of-wight-2024-hdtv-h264-1080i-dd5-1-ilya2129.247814/]]></link>
                <description><![CDATA[<article>
<blockquote class="messageText SelectQuoteContainer ugc baseHtml">
<div style="text-align: center"><img src="https://i123.fastpic.org/big/2024/0622/e0/bad436517f8c24d4734ef8f62ee125e0.png?r=1" class="bbCodeImage LbImage" alt="[​IMG]" data-url="https://i123.fastpic.org/big/2024/0622/e0/bad436517f8c24d4734ef8f62ee125e0.png?r=1" style=""><br>
<br>
<a href="https://fastpic.org/view/123/2024/0624/_1ff76e5b83474eb3dfa4fa19ffe618ae.png.html" target="_blank" class="externalLink" rel="nofollow"><img src="https://i123.fastpic.org/thumb/2024/0624/ae/_1ff76e5b83474eb3dfa4fa19ffe618ae.jpeg" class="bbCodeImage LbImage" alt="[​IMG]" data-url="https://i123.fastpic.org/thumb/2024/0624/ae/_1ff76e5b83474eb3dfa4fa19ffe618ae.jpeg"></a> <a href="https://fastpic.org/view/123/2024/0624/_4fa8c2baf6aa629603bbbafa2bc3ebfc.png.html" target="_blank" class="externalLink" rel="nofollow"><img src="https://i123.fastpic.org/thumb/2024/0624/fc/_4fa8c2baf6aa629603bbbafa2bc3ebfc.jpeg" class="bbCodeImage LbImage" alt="[​IMG]" data-url="https://i123.fastpic.org/thumb/2024/0624/fc/_4fa8c2baf6aa629603bbbafa2bc3ebfc.jpeg"></a> <a href="https://fastpic.org/view/123/2024/0624/_d9d5061684b613f41a29d14f52b5a085.png.html" target="_blank" class="externalLink" rel="nofollow"><img src="https://i123.fastpic.org/thumb/2024/0624/85/_d9d5061684b613f41a29d14f52b5a085.jpeg" class="bbCodeImage LbImage" alt="[​IMG]" data-url="https://i123.fastpic.org/thumb/2024/0624/85/_d9d5061684b613f41a29d14f52b5a085.jpeg"></a> <a href="https://fastpic.org/view/123/2024/0624/_ef891e01a8e91af5e1c5df7320295d45.png.html" target="_blank" class="externalLink" rel="nofollow"><img src="https://i123.fastpic.org/thumb/2024/0624/45/_ef891e01a8e91af5e1c5df7320295d45.jpeg" class="bbCodeImage LbImage" alt="[​IMG]" data-url="https://i123.fastpic.org/thumb/2024/0624/45/_ef891e01a8e91af5e1c5df7320295d45.jpeg"></a> <a href="https://fastpic.org/view/123/2024/0624/_cb9093912ff1dcae726d02027e33fb4e.png.html" target="_blank" class="externalLink" rel="nofollow"><img src="https://i123.fastpic.org/thumb/2024/0624/4e/_cb9093912ff1dcae726d02027e33fb4e.jpeg" class="bbCodeImage LbImage" alt="[​IMG]" data-url="https://i123.fastpic.org/thumb/2024/0624/4e/_cb9093912ff1dcae726d02027e33fb4e.jpeg"></a> <a href="https://fastpic.org/view/123/2024/0624/_58c0f41bc7cc5cf250ae961911fd50a3.png.html" target="_blank" class="externalLink" rel="nofollow"><img src="https://i123.fastpic.org/thumb/2024/0624/a3/_58c0f41bc7cc5cf250ae961911fd50a3.jpeg" class="bbCodeImage LbImage" alt="[​IMG]" data-url="https://i123.fastpic.org/thumb/2024/0624/a3/_58c0f41bc7cc5cf250ae961911fd50a3.jpeg"></a><br>
<br>
​</div><br>
<div class="bbCodeBlock bbCodeCode">
<div class="type">Code:</div>
<pre>General
ID                                       : 1 (0x1)
Complete name                            : C:\Recordings\Green Day - Live @ Isle Of Wight 2024 HDTV H264 1080i DD5.1-ilya2129.ts
Format                                   : MPEG-TS
File size                                : 5.88 GiB
Duration                                 : 1 h 57 min
Overall bit rate mode                    : Variable
Overall bit rate                         : 7 168 kb/s
Frame rate                               : 25.000 FPS

Video
ID                                       : 302 (0x12E)
Menu ID                                  : 1 (0x1)
Format                                   : AVC
Format/Info                              : Advanced Video Codec
Format profile                           : High@L4
Format settings                          : CABAC / 3 Ref Frames
Format settings, CABAC                   : Yes
Format settings, Reference frames        : 3 frames
Format settings, Slice count             : 2 slices per frame
Codec ID                                 : 27
Duration                                 : 1 h 57 min
Bit rate                                 : 6 296 kb/s
Width                                    : 1 920 pixels
Height                                   : 1 080 pixels
Display aspect ratio                     : 16:9
Frame rate                               : 25.000 FPS
Color space                              : YUV
Chroma subsampling                       : 4:2:0
Bit depth                                : 8 bits
Scan type                                : MBAFF
Bits/(Pixel*Frame)                       : 0.121
Time code of first frame                 : 20:33:58
Stream size                              : 5.17 GiB (88%)
Color range                              : Limited
Color primaries                          : BT.709
Transfer characteristics                 : BT.709
Matrix coefficients                      : BT.709

Audio #1
ID                                       : 303 (0x12F)
Menu ID                                  : 1 (0x1)
Format                                   : MPEG Audio
Format version                           : Version 1
Format profile                           : Layer 2
Codec ID                                 : 3
Duration                                 : 1 h 57 min
Bit rate mode                            : Constant
Bit rate                                 : 128 kb/s
Channel(s)                               : 2 channels
Sampling rate                            : 48.0 kHz
Frame rate                               : 41.667 FPS (1152 SPF)
Compression mode                         : Lossy
Delay relative to video                  : -40 ms
Stream size                              : 108 MiB (2%)
Language                                 : nar

Audio #2
ID                                       : 304 (0x130)
Menu ID                                  : 1 (0x1)
Format                                   : AC-3
Format/Info                              : Audio Coding 3
Commercial name                          : Dolby Digital
Codec ID                                 : 6
Duration                                 : 1 h 57 min
Bit rate mode                            : Constant
Bit rate                                 : 384 kb/s
Channel(s)                               : 6 channels
Channel layout                           : L R C LFE Ls Rs
Sampling rate                            : 48.0 kHz
Frame rate                               : 31.250 FPS (1536 SPF)
Compression mode                         : Lossy
Delay relative to video                  : -40 ms
Stream size                              : 323 MiB (5%)
Language                                 : English
Service kind                             : Complete Main

</pre>
</div><div style="text-align: center"><br>
<div class="bbCodeBlock bbCodeVfcHH HiddenContent">
<div class="attribution type">Hidden Content:</div>
<blockquote>You must reply before you can see the hidden data contained here.</blockquote>
</div></div>
<div class="messageTextEndMarker">&nbsp;</div>
</blockquote>
</article>]]></description>
                <author><![CDATA[ilya2129]]></author>
                </item>

                
                <item>
                <title><![CDATA[【HD Live Performances】HDTV - Calum Scott - Live @ Pinkpop 2024 HDTV H264 1080i MP2-ilya2129]]></title>
                <link><![CDATA[https://sharemania.us/threads/calum-scott-live-pinkpop-2024-hdtv-h264-1080i-mp2-ilya2129.247810/]]></link>
                <description><![CDATA[<article>
<blockquote class="messageText SelectQuoteContainer ugc baseHtml">
Do you have zara larsson?
<div class="messageTextEndMarker">&nbsp;</div>
</blockquote>
</article>]]></description>
                <author><![CDATA[ilya2129]]></author>
                </item>

                
                <item>
                <title><![CDATA[【HD Live Performances】HDTV - Camila Cabello - Live @ Rock In Rio Lisboa 2024 HDTV H264 1080i MP2-ilya2129]]></title>
                <link><![CDATA[https://sharemania.us/threads/camila-cabello-live-rock-in-rio-lisboa-2024-hdtv-h264-1080i-mp2-ilya2129.247808/]]></link>
                <description><![CDATA[<article>
<blockquote class="messageText SelectQuoteContainer ugc baseHtml">
<div style="text-align: center"><img src="https://i123.fastpic.org/big/2024/0622/e9/9b01a3e0688d10ff569e7812b3096ee9.png?r=1" class="bbCodeImage LbImage" alt="[​IMG]" data-url="https://i123.fastpic.org/big/2024/0622/e9/9b01a3e0688d10ff569e7812b3096ee9.png?r=1" style=""><br>
<br>
<a href="https://fastpic.org/view/123/2024/0624/_8e3e0a61f5aaf3298631b9998dd689fd.png.html" target="_blank" class="externalLink" rel="nofollow"><img src="https://i123.fastpic.org/thumb/2024/0624/fd/_8e3e0a61f5aaf3298631b9998dd689fd.jpeg" class="bbCodeImage LbImage" alt="[​IMG]" data-url="https://i123.fastpic.org/thumb/2024/0624/fd/_8e3e0a61f5aaf3298631b9998dd689fd.jpeg"></a> <a href="https://fastpic.org/view/123/2024/0624/_6ed90ac20d2fffdb6c523e0aeaac9621.png.html" target="_blank" class="externalLink" rel="nofollow"><img src="https://i123.fastpic.org/thumb/2024/0624/21/_6ed90ac20d2fffdb6c523e0aeaac9621.jpeg" class="bbCodeImage LbImage" alt="[​IMG]" data-url="https://i123.fastpic.org/thumb/2024/0624/21/_6ed90ac20d2fffdb6c523e0aeaac9621.jpeg"></a> <a href="https://fastpic.org/view/123/2024/0624/_06b2b7f57a752a2aae0074da451725a5.png.html" target="_blank" class="externalLink" rel="nofollow"><img src="https://i123.fastpic.org/thumb/2024/0624/a5/_06b2b7f57a752a2aae0074da451725a5.jpeg" class="bbCodeImage LbImage" alt="[​IMG]" data-url="https://i123.fastpic.org/thumb/2024/0624/a5/_06b2b7f57a752a2aae0074da451725a5.jpeg"></a> <a href="https://fastpic.org/view/123/2024/0624/_d6e374ecd661f5290e06449f156af8b5.png.html" target="_blank" class="externalLink" rel="nofollow"><img src="https://i123.fastpic.org/thumb/2024/0624/b5/_d6e374ecd661f5290e06449f156af8b5.jpeg" class="bbCodeImage LbImage" alt="[​IMG]" data-url="https://i123.fastpic.org/thumb/2024/0624/b5/_d6e374ecd661f5290e06449f156af8b5.jpeg"></a> <a href="https://fastpic.org/view/123/2024/0624/_c9b15c986b38da975ae0325989ed2e96.png.html" target="_blank" class="externalLink" rel="nofollow"><img src="https://i123.fastpic.org/thumb/2024/0624/96/_c9b15c986b38da975ae0325989ed2e96.jpeg" class="bbCodeImage LbImage" alt="[​IMG]" data-url="https://i123.fastpic.org/thumb/2024/0624/96/_c9b15c986b38da975ae0325989ed2e96.jpeg"></a> <a href="https://fastpic.org/view/123/2024/0624/_7ad03103f23994c242ecfc926d299181.png.html" target="_blank" class="externalLink" rel="nofollow"><img src="https://i123.fastpic.org/thumb/2024/0624/81/_7ad03103f23994c242ecfc926d299181.jpeg" class="bbCodeImage LbImage" alt="[​IMG]" data-url="https://i123.fastpic.org/thumb/2024/0624/81/_7ad03103f23994c242ecfc926d299181.jpeg"></a><br>
<br>
​</div><br>
<div class="bbCodeBlock bbCodeCode">
<div class="type">Code:</div>
<pre>General
ID                                       : 1 (0x1)
Complete name                            : C:\Recordings\Calum Scott - Live @ Pinkpop 2024 HDTV H264 1080i MP2-ilya2129.ts
Format                                   : MPEG-TS
File size                                : 2.07 GiB
Duration                                 : 58 min 14 s
Overall bit rate mode                    : Variable
Overall bit rate                         : 5 093 kb/s
Frame rate                               : 25.000 FPS

Video
ID                                       : 302 (0x12E)
Menu ID                                  : 1 (0x1)
Format                                   : AVC
Format/Info                              : Advanced Video Codec
Format profile                           : High@L4
Format settings                          : CABAC / 4 Ref Frames
Format settings, CABAC                   : Yes
Format settings, Reference frames        : 4 frames
Format settings, GOP                     : M=4, N=32
Format settings, Slice count             : 2 slices per frame
Codec ID                                 : 27
Duration                                 : 58 min 12 s
Bit rate                                 : 4 583 kb/s
Width                                    : 1 920 pixels
Height                                   : 1 080 pixels
Display aspect ratio                     : 16:9
Active Format Description                : Letterbox 16:9 image
Frame rate                               : 25.000 FPS
Standard                                 : Component
Color space                              : YUV
Chroma subsampling                       : 4:2:0
Bit depth                                : 8 bits
Scan type                                : MBAFF
Scan type, store method                  : Separated fields
Scan order                               : Top Field First
Bits/(Pixel*Frame)                       : 0.088
Stream size                              : 1.86 GiB (90%)
Color range                              : Limited
Color primaries                          : BT.709
Transfer characteristics                 : BT.709
Matrix coefficients                      : BT.709

Audio
ID                                       : 303 (0x12F)
Menu ID                                  : 1 (0x1)
Format                                   : MPEG Audio
Format version                           : Version 1
Format profile                           : Layer 2
Codec ID                                 : 3
Duration                                 : 58 min 12 s
Bit rate mode                            : Constant
Bit rate                                 : 256 kb/s
Channel(s)                               : 2 channels
Sampling rate                            : 48.0 kHz
Frame rate                               : 41.667 FPS (1152 SPF)
Compression mode                         : Lossy
Delay relative to video                  : -160 ms
Stream size                              : 107 MiB (5%)
Language                                 : Dutch

Text
ID                                       : 310 (0x136)-888
Menu ID                                  : 1 (0x1)
Format                                   : Teletext Subtitle
Language                                 : Dutch
Language, more info                      : For hearing impaired people

Other
ID                                       : 310 (0x136)-100
Menu ID                                  : 1 (0x1)
Format                                   : Teletext
Language                                 : Dutch


</pre>
</div><div style="text-align: center"><br>
<div class="bbCodeBlock bbCodeVfcHH HiddenContent">
<div class="attribution type">Hidden Content:</div>
<blockquote>You must reply before you can see the hidden data contained here.</blockquote>
</div></div>
<div class="messageTextEndMarker">&nbsp;</div>
</blockquote>
</article>]]></description>
                <author><![CDATA[ilya2129]]></author>
                </item>

                
                <item>
                <title><![CDATA[【HD Live Performances】HDTV - Hozier - Live @ Pinkpop 2024 HDTV H264 1080i MP2-ilya2129]]></title>
                <link><![CDATA[https://sharemania.us/threads/hozier-live-pinkpop-2024-hdtv-h264-1080i-mp2-ilya2129.247811/]]></link>
                <description><![CDATA[<article>
<blockquote class="messageText SelectQuoteContainer ugc baseHtml">
<div style="text-align: center"><img src="https://i120.fastpic.org/big/2022/0620/9e/704b1806aa4f5dc741d35a32e2158b9e.png?r=1" class="bbCodeImage LbImage" alt="[​IMG]" data-url="https://i120.fastpic.org/big/2022/0620/9e/704b1806aa4f5dc741d35a32e2158b9e.png?r=1" style=""><br>
<br>
<a href="https://fastpic.org/view/123/2024/0624/_304f2afde5f601e8edcf20406fe80843.png.html" target="_blank" class="externalLink" rel="nofollow"><img src="https://i123.fastpic.org/thumb/2024/0624/43/_304f2afde5f601e8edcf20406fe80843.jpeg" class="bbCodeImage LbImage" alt="[​IMG]" data-url="https://i123.fastpic.org/thumb/2024/0624/43/_304f2afde5f601e8edcf20406fe80843.jpeg"></a> <a href="https://fastpic.org/view/123/2024/0624/_6da25927850364d6a3896de8e1de6e36.png.html" target="_blank" class="externalLink" rel="nofollow"><img src="https://i123.fastpic.org/thumb/2024/0624/36/_6da25927850364d6a3896de8e1de6e36.jpeg" class="bbCodeImage LbImage" alt="[​IMG]" data-url="https://i123.fastpic.org/thumb/2024/0624/36/_6da25927850364d6a3896de8e1de6e36.jpeg"></a> <a href="https://fastpic.org/view/123/2024/0624/_98086985f4fb9b4b6e9bce70c4ee19a2.png.html" target="_blank" class="externalLink" rel="nofollow"><img src="https://i123.fastpic.org/thumb/2024/0624/a2/_98086985f4fb9b4b6e9bce70c4ee19a2.jpeg" class="bbCodeImage LbImage" alt="[​IMG]" data-url="https://i123.fastpic.org/thumb/2024/0624/a2/_98086985f4fb9b4b6e9bce70c4ee19a2.jpeg"></a> <a href="https://fastpic.org/view/123/2024/0624/_165078953335462134ddabf3af2bdd53.png.html" target="_blank" class="externalLink" rel="nofollow"><img src="https://i123.fastpic.org/thumb/2024/0624/53/_165078953335462134ddabf3af2bdd53.jpeg" class="bbCodeImage LbImage" alt="[​IMG]" data-url="https://i123.fastpic.org/thumb/2024/0624/53/_165078953335462134ddabf3af2bdd53.jpeg"></a> <a href="https://fastpic.org/view/123/2024/0624/_0cb43e0c1480c01313d67d2aba622080.png.html" target="_blank" class="externalLink" rel="nofollow"><img src="https://i123.fastpic.org/thumb/2024/0624/80/_0cb43e0c1480c01313d67d2aba622080.jpeg" class="bbCodeImage LbImage" alt="[​IMG]" data-url="https://i123.fastpic.org/thumb/2024/0624/80/_0cb43e0c1480c01313d67d2aba622080.jpeg"></a> <a href="https://fastpic.org/view/123/2024/0624/_f661e435caec751fab04bd7428dced2d.png.html" target="_blank" class="externalLink" rel="nofollow"><img src="https://i123.fastpic.org/thumb/2024/0624/2d/_f661e435caec751fab04bd7428dced2d.jpeg" class="bbCodeImage LbImage" alt="[​IMG]" data-url="https://i123.fastpic.org/thumb/2024/0624/2d/_f661e435caec751fab04bd7428dced2d.jpeg"></a><br>
<br>
​</div><br>
<div class="bbCodeBlock bbCodeCode">
<div class="type">Code:</div>
<pre>General
ID                                       : 1 (0x1)
Complete name                            : C:\Recordings\Camila Cabello - Live @ Rock In Rio Lisboa 2024 HDTV H264 1080i MP2-ilya2129.ts
Format                                   : MPEG-TS
File size                                : 3.05 GiB
Duration                                 : 1 h 16 min
Overall bit rate mode                    : Variable
Overall bit rate                         : 5 738 kb/s
Frame rate                               : 25.000 FPS

Video
ID                                       : 302 (0x12E)
Menu ID                                  : 1 (0x1)
Format                                   : AVC
Format/Info                              : Advanced Video Codec
Format profile                           : High@L4
Format settings                          : CABAC / 4 Ref Frames
Format settings, CABAC                   : Yes
Format settings, Reference frames        : 4 frames
Format settings, GOP                     : M=4, N=28
Codec ID                                 : 27
Duration                                 : 1 h 16 min
Bit rate                                 : 5 260 kb/s
Width                                    : 1 920 pixels
Height                                   : 1 080 pixels
Display aspect ratio                     : 16:9
Active Format Description                : Full frame 16:9 image
Frame rate                               : 25.000 FPS
Standard                                 : Component
Color space                              : YUV
Chroma subsampling                       : 4:2:0
Bit depth                                : 8 bits
Scan type                                : Interlaced
Scan type, store method                  : Separated fields
Scan order                               : Top Field First
Bits/(Pixel*Frame)                       : 0.101
Stream size                              : 2.79 GiB (92%)
Color range                              : Limited
Color primaries                          : BT.709
Transfer characteristics                 : BT.709
Matrix coefficients                      : BT.709

Audio
ID                                       : 303 (0x12F)
Menu ID                                  : 1 (0x1)
Format                                   : MPEG Audio
Format version                           : Version 1
Format profile                           : Layer 2
Codec ID                                 : 3
Duration                                 : 1 h 16 min
Bit rate mode                            : Constant
Bit rate                                 : 192 kb/s
Channel(s)                               : 2 channels
Sampling rate                            : 48.0 kHz
Frame rate                               : 41.667 FPS (1152 SPF)
Compression mode                         : Lossy
Delay relative to video                  : -80 ms
Stream size                              : 104 MiB (3%)
Language                                 : Portuguese



</pre>
</div><div style="text-align: center"><br>
<div class="bbCodeBlock bbCodeVfcHH HiddenContent">
<div class="attribution type">Hidden Content:</div>
<blockquote>You must reply before you can see the hidden data contained here.</blockquote>
</div></div>
<div class="messageTextEndMarker">&nbsp;</div>
</blockquote>
</article>]]></description>
                <author><![CDATA[ilya2129]]></author>
                </item>

                
                <item>
                <title><![CDATA[【HD Live Performances】HDTV - Ed Sheeran - Live @ Pinkpop 2024 HDTV H264 1080i MP2-ilya2129]]></title>
                <link><![CDATA[https://sharemania.us/threads/ed-sheeran-live-pinkpop-2024-hdtv-h264-1080i-mp2-ilya2129.247813/]]></link>
                <description><![CDATA[<article>
<blockquote class="messageText SelectQuoteContainer ugc baseHtml">
thanks
<div class="messageTextEndMarker">&nbsp;</div>
</blockquote>
</article>]]></description>
                <author><![CDATA[ilya2129]]></author>
                </item>

                
                <item>
                <title><![CDATA[【HD Live Performances】HDTV - Doja Cat - Live @ Rock In Rio Lisboa 2024 HDTV H264 1080i MP2-ilya2129]]></title>
                <link><![CDATA[https://sharemania.us/threads/doja-cat-live-rock-in-rio-lisboa-2024-hdtv-h264-1080i-mp2-ilya2129.247809/]]></link>
                <description><![CDATA[<article>
<blockquote class="messageText SelectQuoteContainer ugc baseHtml">
<div style="text-align: center"><img src="https://i123.fastpic.org/big/2024/0622/e9/9b01a3e0688d10ff569e7812b3096ee9.png?r=1" class="bbCodeImage LbImage" alt="[​IMG]" data-url="https://i123.fastpic.org/big/2024/0622/e9/9b01a3e0688d10ff569e7812b3096ee9.png?r=1" style=""><br>
<br>
<a href="https://fastpic.org/view/123/2024/0624/_360febbc006c19bcc8e88702b736cc2c.png.html" target="_blank" class="externalLink" rel="nofollow"><img src="https://i123.fastpic.org/thumb/2024/0624/2c/_360febbc006c19bcc8e88702b736cc2c.jpeg" class="bbCodeImage LbImage" alt="[​IMG]" data-url="https://i123.fastpic.org/thumb/2024/0624/2c/_360febbc006c19bcc8e88702b736cc2c.jpeg"></a> <a href="https://fastpic.org/view/123/2024/0624/_9d9cef6e9cce0bee93b0e939e22af91a.png.html" target="_blank" class="externalLink" rel="nofollow"><img src="https://i123.fastpic.org/thumb/2024/0624/1a/_9d9cef6e9cce0bee93b0e939e22af91a.jpeg" class="bbCodeImage LbImage" alt="[​IMG]" data-url="https://i123.fastpic.org/thumb/2024/0624/1a/_9d9cef6e9cce0bee93b0e939e22af91a.jpeg"></a> <a href="https://fastpic.org/view/123/2024/0624/_fcc7efe4f752d9496b076ec793772e78.png.html" target="_blank" class="externalLink" rel="nofollow"><img src="https://i123.fastpic.org/thumb/2024/0624/78/_fcc7efe4f752d9496b076ec793772e78.jpeg" class="bbCodeImage LbImage" alt="[​IMG]" data-url="https://i123.fastpic.org/thumb/2024/0624/78/_fcc7efe4f752d9496b076ec793772e78.jpeg"></a> <a href="https://fastpic.org/view/123/2024/0624/_6824e154c9b572dd2484b3edc161f0d1.png.html" target="_blank" class="externalLink" rel="nofollow"><img src="https://i123.fastpic.org/thumb/2024/0624/d1/_6824e154c9b572dd2484b3edc161f0d1.jpeg" class="bbCodeImage LbImage" alt="[​IMG]" data-url="https://i123.fastpic.org/thumb/2024/0624/d1/_6824e154c9b572dd2484b3edc161f0d1.jpeg"></a> <a href="https://fastpic.org/view/123/2024/0624/_3095cfe7526cad6df1c78224ad9fe316.png.html" target="_blank" class="externalLink" rel="nofollow"><img src="https://i123.fastpic.org/thumb/2024/0624/16/_3095cfe7526cad6df1c78224ad9fe316.jpeg" class="bbCodeImage LbImage" alt="[​IMG]" data-url="https://i123.fastpic.org/thumb/2024/0624/16/_3095cfe7526cad6df1c78224ad9fe316.jpeg"></a> <a href="https://fastpic.org/view/123/2024/0624/_d4b26342edc6bc54c9ad25239c4882ff.png.html" target="_blank" class="externalLink" rel="nofollow"><img src="https://i123.fastpic.org/thumb/2024/0624/ff/_d4b26342edc6bc54c9ad25239c4882ff.jpeg" class="bbCodeImage LbImage" alt="[​IMG]" data-url="https://i123.fastpic.org/thumb/2024/0624/ff/_d4b26342edc6bc54c9ad25239c4882ff.jpeg"></a><br>
<br>
​</div><br>
<div class="bbCodeBlock bbCodeCode">
<div class="type">Code:</div>
<pre>General
ID                                       : 1 (0x1)
Complete name                            : C:\Recordings\Hozier - Live @ Pinkpop 2024 HDTV H264 1080i MP2-ilya2129.ts
Format                                   : MPEG-TS
File size                                : 2.28 GiB
Duration                                 : 58 min 25 s
Overall bit rate mode                    : Variable
Overall bit rate                         : 5 580 kb/s
Frame rate                               : 25.000 FPS

Video
ID                                       : 302 (0x12E)
Menu ID                                  : 1 (0x1)
Format                                   : AVC
Format/Info                              : Advanced Video Codec
Format profile                           : High@L4
Format settings                          : CABAC / 4 Ref Frames
Format settings, CABAC                   : Yes
Format settings, Reference frames        : 4 frames
Codec ID                                 : 27
Duration                                 : 58 min 25 s
Bit rate                                 : 5 046 kb/s
Width                                    : 1 920 pixels
Height                                   : 1 080 pixels
Display aspect ratio                     : 16:9
Active Format Description                : Letterbox 16:9 image
Frame rate                               : 25.000 FPS
Standard                                 : Component
Color space                              : YUV
Chroma subsampling                       : 4:2:0
Bit depth                                : 8 bits
Scan type                                : MBAFF
Scan type, store method                  : Interleaved fields
Scan order                               : Top Field First
Bits/(Pixel*Frame)                       : 0.097
Stream size                              : 2.06 GiB (90%)
Color range                              : Limited
Color primaries                          : BT.709
Transfer characteristics                 : BT.709
Matrix coefficients                      : BT.709

Audio
ID                                       : 303 (0x12F)
Menu ID                                  : 1 (0x1)
Format                                   : MPEG Audio
Format version                           : Version 1
Format profile                           : Layer 2
Codec ID                                 : 3
Duration                                 : 58 min 25 s
Bit rate mode                            : Constant
Bit rate                                 : 256 kb/s
Channel(s)                               : 2 channels
Sampling rate                            : 48.0 kHz
Frame rate                               : 41.667 FPS (1152 SPF)
Compression mode                         : Lossy
Stream size                              : 107 MiB (5%)
Language                                 : Dutch

Text
ID                                       : 310 (0x136)-888
Menu ID                                  : 1 (0x1)
Format                                   : Teletext Subtitle
Language                                 : Dutch
Language, more info                      : For hearing impaired people

Other
ID                                       : 310 (0x136)-100
Menu ID                                  : 1 (0x1)
Format                                   : Teletext
Language                                 : Dutch



</pre>
</div><div style="text-align: center"><br>
<div class="bbCodeBlock bbCodeVfcHH HiddenContent">
<div class="attribution type">Hidden Content:</div>
<blockquote>You must reply before you can see the hidden data contained here.</blockquote>
</div></div>
<div class="messageTextEndMarker">&nbsp;</div>
</blockquote>
</article>]]></description>
                <author><![CDATA[ilya2129]]></author>
                </item>

                
                <item>
                <title><![CDATA[【Actresses】Sydney Sweeney and other - Euphoria s01e06 (2019)1080p]]></title>
                <link><![CDATA[https://sharemania.us/threads/sydney-sweeney-and-other-euphoria-s01e06-2019-1080p.247815/]]></link>
                <description><![CDATA[<article>
<blockquote class="messageText SelectQuoteContainer ugc baseHtml">
<div style="text-align: center"><img src="https://i123.fastpic.org/big/2024/0622/e9/9b01a3e0688d10ff569e7812b3096ee9.png?r=1" class="bbCodeImage LbImage" alt="[​IMG]" data-url="https://i123.fastpic.org/big/2024/0622/e9/9b01a3e0688d10ff569e7812b3096ee9.png?r=1" style=""><br>
<br>
<a href="https://fastpic.org/view/123/2024/0624/_a560e1ea70e912f15ab467d4d54fe7f5.png.html" target="_blank" class="externalLink" rel="nofollow"><img src="https://i123.fastpic.org/thumb/2024/0624/f5/_a560e1ea70e912f15ab467d4d54fe7f5.jpeg" class="bbCodeImage LbImage" alt="[​IMG]" data-url="https://i123.fastpic.org/thumb/2024/0624/f5/_a560e1ea70e912f15ab467d4d54fe7f5.jpeg"></a><br>
<a href="https://fastpic.org/view/123/2024/0624/_26e2ca4954e28349e0eb67af2e1b7262.png.html" target="_blank" class="externalLink" rel="nofollow"><img src="https://i123.fastpic.org/thumb/2024/0624/62/_26e2ca4954e28349e0eb67af2e1b7262.jpeg" class="bbCodeImage LbImage" alt="[​IMG]" data-url="https://i123.fastpic.org/thumb/2024/0624/62/_26e2ca4954e28349e0eb67af2e1b7262.jpeg"></a><br>
<a href="https://fastpic.org/view/123/2024/0624/_6620d6a47a46e2620efe5e4553688884.png.html" target="_blank" class="externalLink" rel="nofollow"><img src="https://i123.fastpic.org/thumb/2024/0624/84/_6620d6a47a46e2620efe5e4553688884.jpeg" class="bbCodeImage LbImage" alt="[​IMG]" data-url="https://i123.fastpic.org/thumb/2024/0624/84/_6620d6a47a46e2620efe5e4553688884.jpeg"></a><br>
<a href="https://fastpic.org/view/123/2024/0624/_9a137d476dc0cf8668888bcc6f148e28.png.html" target="_blank" class="externalLink" rel="nofollow"><img src="https://i123.fastpic.org/thumb/2024/0624/28/_9a137d476dc0cf8668888bcc6f148e28.jpeg" class="bbCodeImage LbImage" alt="[​IMG]" data-url="https://i123.fastpic.org/thumb/2024/0624/28/_9a137d476dc0cf8668888bcc6f148e28.jpeg"></a><br>
<a href="https://fastpic.org/view/123/2024/0624/_89fb5d0604482146b85271a4088fc55d.png.html" target="_blank" class="externalLink" rel="nofollow"><img src="https://i123.fastpic.org/thumb/2024/0624/5d/_89fb5d0604482146b85271a4088fc55d.jpeg" class="bbCodeImage LbImage" alt="[​IMG]" data-url="https://i123.fastpic.org/thumb/2024/0624/5d/_89fb5d0604482146b85271a4088fc55d.jpeg"></a><br>
<a href="https://fastpic.org/view/123/2024/0624/_de98e841ead00425650ececbacbd7706.png.html" target="_blank" class="externalLink" rel="nofollow"><img src="https://i123.fastpic.org/thumb/2024/0624/06/_de98e841ead00425650ececbacbd7706.jpeg" class="bbCodeImage LbImage" alt="[​IMG]" data-url="https://i123.fastpic.org/thumb/2024/0624/06/_de98e841ead00425650ececbacbd7706.jpeg"></a><br>
<br>
​</div><br>
<div class="bbCodeBlock bbCodeCode">
<div class="type">Code:</div>
<pre>General
ID                                       : 1 (0x1)
Complete name                            : C:\Recordings\Ed Sheeran - Live @ Pinkpop 2024 HDTV H264 1080i MP2-ilya2129.ts
Format                                   : MPEG-TS
File size                                : 3.38 GiB
Duration                                 : 1 h 33 min
Overall bit rate mode                    : Variable
Overall bit rate                         : 5 162 kb/s
Frame rate                               : 25.000 FPS

Video
ID                                       : 302 (0x12E)
Menu ID                                  : 1 (0x1)
Format                                   : AVC
Format/Info                              : Advanced Video Codec
Format profile                           : High@L4
Format settings                          : CABAC / 4 Ref Frames
Format settings, CABAC                   : Yes
Format settings, Reference frames        : 4 frames
Codec ID                                 : 27
Duration                                 : 1 h 33 min
Bit rate                                 : 4 648 kb/s
Width                                    : 1 920 pixels
Height                                   : 1 080 pixels
Display aspect ratio                     : 16:9
Active Format Description                : Letterbox 16:9 image
Frame rate                               : 25.000 FPS
Standard                                 : Component
Color space                              : YUV
Chroma subsampling                       : 4:2:0
Bit depth                                : 8 bits
Scan type                                : MBAFF
Scan type, store method                  : Interleaved fields
Scan order                               : Top Field First
Bits/(Pixel*Frame)                       : 0.090
Stream size                              : 3.04 GiB (90%)
Color range                              : Limited
Color primaries                          : BT.709
Transfer characteristics                 : BT.709
Matrix coefficients                      : BT.709

Audio
ID                                       : 303 (0x12F)
Menu ID                                  : 1 (0x1)
Format                                   : MPEG Audio
Format version                           : Version 1
Format profile                           : Layer 2
Codec ID                                 : 3
Duration                                 : 1 h 33 min
Bit rate mode                            : Constant
Bit rate                                 : 256 kb/s
Channel(s)                               : 2 channels
Sampling rate                            : 48.0 kHz
Frame rate                               : 41.667 FPS (1152 SPF)
Compression mode                         : Lossy
Delay relative to video                  : -160 ms
Stream size                              : 172 MiB (5%)
Language                                 : Dutch

Text
ID                                       : 310 (0x136)-888
Menu ID                                  : 1 (0x1)
Format                                   : Teletext Subtitle
Language                                 : Dutch
Language, more info                      : For hearing impaired people

Other
ID                                       : 310 (0x136)-100
Menu ID                                  : 1 (0x1)
Format                                   : Teletext
Language                                 : Dutch


</pre>
</div><div style="text-align: center"><br>
<div class="bbCodeBlock bbCodeVfcHH HiddenContent">
<div class="attribution type">Hidden Content:</div>
<blockquote>You must reply before you can see the hidden data contained here.</blockquote>
</div></div>
<div class="messageTextEndMarker">&nbsp;</div>
</blockquote>
</article>]]></description>
                <author><![CDATA[piqeros]]></author>
                </item>

                </channel></rss>